# xmcd CD database file
#
# Track frame offsets:
#	150
#	16940
#	29740
#	50467
#	66527
#	87825
#	105275
#	123030
#	137357
#	153875
#	171905
#	194850
#
# Disc length: 2834 seconds
#
# Revision: 2
# Processed by: cddbd v1.5PL3 Copyright (c) Steve Scherf et al.
# Submitted via: CDex 1.50
#
DISCID=9c0b100c
DTITLE=SURFACE - Fate
DYEAR=1900
DGENRE=Pop
TTITLE0=????? my ??
TTITLE1=???? -Fate mix-
TTITLE2=switch
TTITLE3=??????
TTITLE4=???? ??????...
TTITLE5=?
TTITLE6=?????
TTITLE7=??=??
TTITLE8=?????
TTITLE9=Tell me
TTITLE10=????
TTITLE11=?????
EXTD=
EXTT0=
EXTT1=
EXTT2=
EXTT3=
EXTT4=
EXTT5=
EXTT6=
EXTT7=
EXTT8=
EXTT9=
EXTT10=
EXTT11=
PLAYORDER=
